PathFileType	4	(X/Y/Z)	/Users/niels/Desktop/University/Third Semester/Perception and Action/Exam/Gymnastics Motion Tracking/Code for Gym Tracking/Analyzed Data/Webcam_Backflip/id3_1_baseline_Sports2D/id3_1_baseline_Sports2D_px_person00.trc
DataRate	CameraRate	NumFrames	NumMarkers	Units	OrigDataRate	OrigDataStartFrame	OrigNumFrames
29.80392156862745	29.80392156862745	11	22	m	29.80392156862745	114	153
Frame#	Time	Hip			RHip			RKnee			RAnkle			RBigToe			RSmallToe			RHeel			LHip			LKnee			LAnkle			LBigToe			LSmallToe			LHeel			Neck			Head			Nose			RShoulder			RElbow			RWrist			LShoulder			LElbow			LWrist		
		X1	Y1	Z1	X2	Y2	Z2	X3	Y3	Z3	X4	Y4	Z4	X5	Y5	Z5	X6	Y6	Z6	X7	Y7	Z7	X8	Y8	Z8	X9	Y9	Z9	X10	Y10	Z10	X11	Y11	Z11	X12	Y12	Z12	X13	Y13	Z13	X14	Y14	Z14	X15	Y15	Z15	X16	Y16	Z16	X17	Y17	Z17	X18	Y18	Z18	X19	Y19	Z19	X20	Y20	Z20	X21	Y21	Z21	X22	Y22	Z22
114	3.825	1.023669474548329	-0.5750013114041667	0.0	1.0216970696837953	-0.5736119716962194	0.0	1.041599633779814	-0.6808587626561794	0.0	1.0097022634227415	-0.7928925955174959	0.0	1.0537486246845351	-0.8111262824101272	0.0	1.0425274430299005	-0.8136460028503307	0.0	0.9961425998019148	-0.8079780231828642	0.0	1.0267191783013054	-0.57456184964209	0.0	1.0264988703910218	-0.680555492398807	0.0	1.0100147562501929	-0.7893788135289621	0.0	1.0572249465706707	-0.8080042132726588	0.0	1.0524117565599163	-0.8052072777787359	0.0	0.9959304009220263	-0.8050376237790187	0.0	1.0578151304923498	-0.4227427602060422	0.0	1.1241691140942354	-0.3904001266676073	0.0	1.0988689530944065	-0.42921983302675776	0.0	1.0340325637001864	-0.4311018513741003	0.0	0.9972435064264952	-0.495968874319086	0.0	1.0059196290989831	-0.5586814242171153	0.0	1.0503839768432068	-0.43907383184278576	0.0	1.0289364203594145	-0.5063915451992357	0.0	1.035591384815871	-0.5646420453260682	0.0
115	3.8585526315789473	1.0229784262083734	-0.5727887806880346	0.0	1.0206564581336144	-0.5708906293656113	0.0	1.0360019475747897	-0.6795645169067862	0.0	1.0091371663318944	-0.7929992185873201	0.0	1.0519468502755065	-0.8108858367236111	0.0	1.0407006860116272	-0.8133190706933943	0.0	0.9960384594443433	-0.8084045583308778	0.0	1.0265242879982588	-0.57193409005182	0.0	1.0281682507237424	-0.679124123458509	0.0	1.0112335698051147	-0.7880985746517994	0.0	1.0568332848042994	-0.8064943277675066	0.0	1.052056200816152	-0.8040342093476005	0.0	0.9967614158662148	-0.8040444268075144	0.0	1.0584010985858534	-0.42123099235865147	0.0	1.1255355106179328	-0.3902340474272055	0.0	1.0993718774306052	-0.42821235013665504	0.0	1.0352871815106384	-0.4297320147077008	0.0	0.9982730260522741	-0.4944724593088221	0.0	1.0085702082062205	-0.5578350248443799	0.0	1.0498889878871205	-0.4363326570421553	0.0	1.0249005988333924	-0.5018506550186367	0.0	1.0309281636383527	-0.5594879888571509	0.0
116	3.892105263157895	1.021411646083571	-0.569909488348272	0.0	1.0187327994667372	-0.5675931500197746	0.0	1.0323056138455122	-0.6771513012065984	0.0	1.0089401327087175	-0.7921188271692772	0.0	1.0506796505839642	-0.8102039384998524	0.0	1.0392723547485212	-0.8126540563840454	0.0	0.9961887444186867	-0.8077952059392055	0.0	1.0259641867577787	-0.5688165674381734	0.0	1.030128142871359	-0.6767763271246005	0.0	1.0127024766730788	-0.7861318043258345	0.0	1.0568774516586574	-0.804656896262868	0.0	1.0520538420527001	-0.8023991191458074	0.0	0.9980378966602733	-0.8023392553000857	0.0	1.0592448192217847	-0.41956539885652505	0.0	1.1272679067387565	-0.3901868302054082	0.0	1.100155679886285	-0.4273047285198787	0.0	1.036685997514791	-0.42811596823465814	0.0	0.9994138189732593	-0.4931197655136446	0.0	1.012559256089944	-0.5572045805459644	0.0	1.049740128272521	-0.4333253287110439	0.0	1.0219093740467213	-0.4981535732887999	0.0	1.0287857315366808	-0.5553876301727504	0.0
117	3.925657894736842	1.0190724870229735	-0.5667607845475278	0.0	1.0160554226749707	-0.5641799809191826	0.0	1.0301090317552226	-0.6740576953619525	0.0	1.0089231060526578	-0.7907442928493936	0.0	1.0498588555910426	-0.8093376810810816	0.0	1.0382363514692687	-0.8119949875316971	0.0	0.9963885191389938	-0.8066110565750105	0.0	1.025037532648665	-0.5656674656827629	0.0	1.032416994520968	-0.673632357829281	0.0	1.014288443335146	-0.7836258754011685	0.0	1.0571922425530145	-0.802622906528078	0.0	1.0522930007895468	-0.80046040657884	0.0	0.9996632443047077	-0.8000900527512389	0.0	1.0603650993157951	-0.41790410549777407	0.0	1.129403564557094	-0.390384142792249	0.0	1.1011844362297196	-0.4266881911308367	0.0	1.0383754071272113	-0.4263151946220217	0.0	1.0007928842376936	-0.49202162373243247	0.0	1.01744508032399	-0.5567508474670956	0.0	1.049783743317673	-0.4302157708221902	0.0	1.0196740128144637	-0.4954184453801368	0.0	1.028451520800598	-0.5525685604764677	0.0
118	3.9592105263157893	1.0162193967329738	-0.5637672361893464	0.0	1.0128385660360246	-0.5610563545743806	0.0	1.0287725243498973	-0.6706830391091176	0.0	1.0089351475748027	-0.7892978258626179	0.0	1.049427118189271	-0.8084680049949619	0.0	1.0376172042596297	-0.8115716750704206	0.0	0.9965215757831446	-0.8052971169662152	0.0	1.0238527915821882	-0.5628719851743414	0.0	1.0352339645744248	-0.669824211618111	0.0	1.0158287908632404	-0.7805901594838244	0.0	1.0575347661653571	-0.8004624741400412	0.0	1.0525397867358282	-0.7983124003714089	0.0	1.001444857312464	-0.7973816684210396	0.0	1.0617116307675765	-0.41644184682076824	0.0	1.131875363316114	-0.3908636858778442	0.0	1.102430894215291	-0.42647135159935484	0.0	1.0403936396457116	-0.4245170530525823	0.0	1.002450799453049	-0.49125175951602296	0.0	1.0226598538091733	-0.5564419591084382	0.0	1.0498537708542472	-0.42723924815740805	0.0	1.0177712829235888	-0.4935052687810258	0.0	1.028876554176085	-0.550885016581283	0.0
119	3.992763157894737	1.0132140509534973	-0.5612986814358074	0.0	1.0093784859407058	-0.5585366922772232	0.0	1.0276980448927429	-0.6674329191426888	0.0	1.0088967829513575	-0.7881319398434474	0.0	1.049374843301488	-0.8076840565496106	0.0	1.0374504503250987	-0.811444533626398	0.0	0.9965859875693993	-0.8042156363689624	0.0	1.022601652547599	-0.5606912570040998	0.0	1.0387558016649872	-0.6655487550722393	0.0	1.0170820459451921	-0.7770121271398969	0.0	1.057690114475529	-0.7982093053033723	0.0	1.0525178142996927	-0.7959895708266287	0.0	1.003072807755873	-0.794235944133751	0.0	1.063145546748048	-0.41537747898803634	0.0	1.1344732612895252	-0.3916029700804519	0.0	1.1038247469987923	-0.42669369556681613	0.0	1.0425985058839036	-0.4230400352574132	0.0	1.0043049924133503	-0.4908634483593109	0.0	1.027585582439781	-0.55627425763166	0.0	1.049792881652012	-0.42467093980736703	0.0	1.015809672830803	-0.4921896346686239	0.0	1.0290645468246993	-0.5500587654605069	0.0
120	4.026315789473684	1.0104418635828847	-0.5595971879700687	0.0	1.0060530846789764	-0.5567991177651659	0.0	1.0264752046370205	-0.6647525434014793	0.0	1.00880187146082	-0.7875252065921358	0.0	1.0496360340882178	-0.8070451355590501	0.0	1.0376803476569414	-0.8115350866336718	0.0	0.9966463117507192	-0.8036154701302043	0.0	1.0214703124736495	-0.5592561120289326	0.0	1.0428917043547186	-0.6611549446550411	0.0	1.0177258085396523	-0.7730031949555202	0.0	1.0574278583181946	-0.7958704207839694	0.0	1.0519204275727698	-0.7934770223385215	0.0	1.0041402813549734	-0.7906727019971271	0.0	1.064473463771042	-0.4148503418097411	0.0	1.1368789177613996	-0.3925493657473502	0.0	1.1052026807122854	-0.42733413148124694	0.0	1.0447231292393642	-0.422190207675113	0.0	1.006170707072933	-0.4908925091236622	0.0	1.0316757753994736	-0.5562922246274011	0.0	1.049506450964144	-0.42273831095710845	0.0	1.0135687258832784	-0.491286319206861	0.0	1.0283279299621768	-0.5498071782595433	0.0
121	4.059868421052632	1.008191139547993	-0.558754279206077	0.0	1.0032408213016377	-0.5558777696239737	0.0	1.024935318819616	-0.663048349981394	0.0	1.0086767926533913	-0.7876299363424984	0.0	1.05002139304068	-0.8066747163560732	0.0	1.0381338579488018	-0.8117756061526822	0.0	0.99672680807538	-0.8036283065455396	0.0	1.0205342186606632	-0.5585929878236588	0.0	1.047149308901374	-0.6572002207226751	0.0	1.0174064588015816	-0.7689466334070992	0.0	1.0563964909657089	-0.7935540677653095	0.0	1.0504030023901652	-0.7908844122025536	0.0	1.0041346352885228	-0.7868918350192049	0.0	1.0655043270224223	-0.4149022738718765	0.0	1.1387679187795219	-0.3936760041546902	0.0	1.1063294389008185	-0.42833560368787305	0.0	1.0464904936137613	-0.4220840901181746	0.0	1.007807270209504	-0.4913280850980737	0.0	1.0345751276026234	-0.5565933706125548	0.0	1.0490019619388125	-0.42155302681290363	0.0	1.0111016682727068	-0.4907199985287808	0.0	1.0265045108919246	-0.5499284121532181	0.0
122	4.093421052631579	1.0065741363661247	-0.5587593823344869	0.0	1.0012121071372382	-0.5557500012155668	0.0	1.0231754678803962	-0.6625557889944206	0.0	1.008558141711247	-0.7884404630153318	0.0	1.0503187042050282	-0.806727829777865	0.0	1.038643379964719	-0.8121890395434423	0.0	0.9967929748552027	-0.8042850128478345	0.0	1.019734282100264	-0.558681468805492	0.0	1.0507123121558934	-0.6544057128954347	0.0	1.0158075785114686	-0.765566037626466	0.0	1.0542304839962078	-0.7916449600876995	0.0	1.0476878798301976	-0.7886821814610279	0.0	1.002516826348038	-0.7834733565030765	0.0	1.0660830864714776	-0.41549957798835485	0.0	1.1399097699566143	-0.3950214691348659	0.0	1.1069561034137467	-0.4296523407944504	0.0	1.0476673299400152	-0.4226210697468833	0.0	1.008941735207231	-0.4920877962986358	0.0	1.0361358984301372	-0.5572823760334414	0.0	1.0483710924561502	-0.42114488263202626	0.0	1.0087333593109111	-0.4905635220084861	0.0	1.0240538701120625	-0.5503771918500706	0.0
123	4.126973684210526	1.0055397304886722	-0.5595176126688166	0.0	1.000062143648818	-0.5563636343151825	0.0	1.0214987544798728	-0.6632573435731924	0.0	1.0085009030416656	-0.7898189205479845	0.0	1.0504138878137341	-0.8072903775030404	0.0	1.0391183260648955	-0.8128364330243671	0.0	0.9968189157631556	-0.8055171080355871	0.0	1.0189187835446152	-0.5594537748858627	0.0	1.0526711234059865	-0.6534303940208838	0.0	1.0127872351867557	-0.7637332903513483	0.0	1.0507997959086548	-0.7907340759755309	0.0	1.0437486087678904	-0.7875921248831236	0.0	0.9990314130502153	-0.7812716013666486	0.0	1.0661105673792692	-0.4165738002278062	0.0	1.140198667952561	-0.39662856520110257	0.0	1.1069103576036827	-0.4312306508877497	0.0	1.0480735337527207	-0.423593598827753	0.0	1.0092854003579352	-0.49304510401534285	0.0	1.0363434851237512	-0.5583903216179653	0.0	1.0477732182347352	-0.4215613878982207	0.0	1.0070098644379302	-0.4910374440458029	0.0	1.0219040438883868	-0.551267281092412	0.0
124	4.160526315789474	1.0049137849043779	-0.5608156611901257	0.0	0.9997100612804193	-0.5575855790887397	0.0	1.0202783920387848	-0.6649117652714988	0.0	1.0085636691967805	-0.7915464429510001	0.0	1.0503321858348456	-0.8083198734882585	0.0	1.0395311879132778	-0.8137319610466411	0.0	0.9968095630109536	-0.8071382086013541	0.0	1.0178885219685616	-0.5607435540063166	0.0	1.0522782669425677	-0.6545606428592081	0.0	1.0085740412949908	-0.7640729127599364	0.0	1.0464261787200544	-0.7912857734523996	0.0	1.0389970099656698	-0.7881158533395198	0.0	0.9940723830757406	-0.7810010425086178	0.0	1.0655879466571314	-0.41803776869461196	0.0	1.1396453002902154	-0.39842106898492063	0.0	1.1062087070811204	-0.43292841363795825	0.0	1.0476282766320546	-0.4247985658818241	0.0	1.0086087463678102	-0.494076152136089	0.0	1.0352630113020351	-0.559832999505925	0.0	1.0473992827104175	-0.42287307949310765	0.0	1.006541770457713	-0.4924200691170993	0.0	1.0210382508603426	-0.5527765780799361	0.0
